<svg xmlns="http://www.w3.org/2000/svg" viewBox="0 0 846 328.84"><defs><style>.cls-1{fill:#fff;}.cls-2{fill:#b3b3b3;}</style></defs><g id="Capa_2" data-name="Capa 2"><g id="Capa_5" data-name="Capa 5"><rect class="cls-1" width="846" height="328.84"/><path d="M336.84,153.69c0-31.15,18.73-47.4,46.63-47.4s46.63,16.25,46.63,47.4v49.5h-5v-49.5c0-27.33-16.43-42.81-41.66-42.81s-41.67,15.48-41.67,42.81v49.5h-5Z"/><path d="M445,156c0-28.67,21-49.69,50.84-49.69s50.64,20.83,50.64,50.07v46.83h-4.77V176.43c-7.84,18.73-24.66,29.24-46.06,29.24C466,205.67,445,184.65,445,156Zm96.51,0c0-25.8-18.34-45.1-45.67-45.1s-45.68,19.3-45.68,45.1,18.35,45.1,45.68,45.1S541.52,181.78,541.52,156Z"/><path d="M544.2,240.45h1c17.58,0,23.89-7.64,23.89-27.52V108.77h5V212.93c0,22-8.22,31.92-28.86,31.92h-1Zm22-160.53a5.35,5.35,0,1,1,5.35,5.35A5.23,5.23,0,0,1,566.18,79.92Z"/><path d="M592.75,156c0-28.67,21-49.69,50.83-49.69s50.65,20.83,50.65,50.07v46.83h-4.78V176.43c-7.84,18.73-24.65,29.24-46.06,29.24C613.77,205.67,592.75,184.65,592.75,156Zm96.51,0c0-25.8-18.35-45.1-45.68-45.1s-45.67,19.3-45.67,45.1,18.34,45.1,45.67,45.1S689.26,181.78,689.26,156Z"/><path d="M713,145.09c0-26,15.67-38.8,38.42-38.8s38.22,12.8,38.22,38.8v1.72h-4.78v-1.72c0-23.13-13.38-34.21-33.44-34.21S717.93,122,717.93,145.09v58.1h-5Z"/><rect x="16.86" y="14.05" width="247.34" height="300.74"/><path class="cls-2" d="M56.19,162.12c0-68.37,33.87-104,84.33-104s84.34,35.65,84.34,104V270.75h-9V162.12c0-60-29.72-93.95-75.35-93.95s-75.35,34-75.35,94V270.75h-9Z"/></g></g></svg>